<?xml version="1.0" standalone="no"?>
<!DOCTYPE svg PUBLIC "-//W3C//DTD SVG 20010904//EN"
 "http://www.w3.org/TR/2001/REC-SVG-20010904/DTD/svg10.dtd">
<svg version="1.0" xmlns="http://www.w3.org/2000/svg"
 width="673.000000pt" height="673.000000pt" viewBox="0 0 673.000000 673.000000"
 preserveAspectRatio="xMidYMid meet">
<metadata>
Created by potrace 1.11, written by Peter Selinger 2001-2013
</metadata>
<g transform="translate(0.000000,673.000000) scale(0.100000,-0.100000)"
fill="#000000" stroke="none">
<path d="M3157 6324 c-1 -1 -40 -5 -87 -8 -47 -4 -94 -9 -105 -11 -11 -3 -42
-7 -70 -10 -64 -7 -104 -13 -190 -32 -38 -8 -81 -17 -95 -19 -86 -16 -329 -95
-465 -151 -216 -90 -479 -242 -665 -386 -149 -116 -360 -316 -449 -427 -20
-25 -44 -52 -53 -61 -10 -9 -18 -21 -18 -27 0 -6 -4 -12 -8 -14 -17 -7 -139
-181 -209 -298 -199 -334 -350 -760 -389 -1100 -3 -25 -7 -56 -9 -70 -32 -184
-22 -580 19 -805 13 -68 19 -101 21 -120 2 -11 17 -76 35 -145 209 -803 746
-1478 1490 -1872 73 -38 140 -69 317 -145 83 -35 343 -112 432 -128 19 -3 37
-7 40 -9 3 -2 31 -7 61 -11 30 -4 58 -8 61 -10 3 -2 27 -7 55 -10 170 -22 265
-28 439 -27 158 0 213 3 323 17 127 15 143 18 202 30 14 2 41 7 60 10 126 20
387 102 575 179 724 301 1323 919 1609 1661 39 103 106 317 120 388 3 12 10
47 15 77 6 30 13 66 16 80 3 14 8 45 11 70 3 25 7 52 9 60 25 93 26 620 1 745
-2 11 -6 41 -10 66 -8 56 -15 96 -21 129 -3 14 -7 34 -9 45 -59 306 -228 711
-410 985 -51 77 -151 216 -170 236 -6 7 -25 29 -43 50 -103 127 -280 302 -409
404 -233 185 -455 318 -718 430 -130 55 -364 131 -476 155 -63 14 -173 35
-210 41 -68 11 -70 11 -140 18 -36 4 -87 9 -115 12 -47 6 -363 13 -368 8z"/>
</g>
</svg>
